<svg width="56" height="56" viewBox="0 0 56 56" fill="none" xmlns="http://www.w3.org/2000/svg">
<path d="M17.5 9.33377C17.8071 9.33554 18.1115 9.27668 18.3958 9.16057C18.6801 9.04445 18.9387 8.87336 19.1567 8.6571L21.49 6.32377C21.9294 5.88439 22.1762 5.28847 22.1762 4.6671C22.1762 4.04573 21.9294 3.44981 21.49 3.01043C21.0506 2.57106 20.4547 2.32422 19.8334 2.32422C19.212 2.32422 18.6161 2.57106 18.1767 3.01043L15.8434 5.34377C15.6247 5.56068 15.4511 5.81875 15.3326 6.10309C15.2141 6.38743 15.1532 6.6924 15.1532 7.00043C15.1532 7.30846 15.2141 7.61344 15.3326 7.89778C15.4511 8.18212 15.6247 8.44019 15.8434 8.6571C16.0614 8.87336 16.32 9.04445 16.6042 9.16057C16.8885 9.27668 17.1929 9.33554 17.5 9.33377ZM26.8334 9.33377C27.1404 9.33554 27.4448 9.27668 27.7291 9.16057C28.0134 9.04445 28.272 8.87336 28.49 8.6571L30.8234 6.32377C31.2627 5.88439 31.5096 5.28847 31.5096 4.6671C31.5096 4.04573 31.2627 3.44981 30.8234 3.01043C30.384 2.57106 29.7881 2.32422 29.1667 2.32422C28.5453 2.32422 27.9494 2.57106 27.51 3.01043L25.1767 5.34377C24.958 5.56068 24.7844 5.81875 24.6659 6.10309C24.5475 6.38743 24.4865 6.6924 24.4865 7.00043C24.4865 7.30846 24.5475 7.61344 24.6659 7.89778C24.7844 8.18212 24.958 8.44019 25.1767 8.6571C25.3947 8.87336 25.6533 9.04445 25.9376 9.16057C26.2219 9.27668 26.5263 9.33554 26.8334 9.33377ZM36.1667 9.33377C36.4738 9.33554 36.7782 9.27668 37.0625 9.16057C37.3468 9.04445 37.6053 8.87336 37.8234 8.6571L40.1567 6.32377C40.3742 6.10621 40.5468 5.84793 40.6646 5.56368C40.7823 5.27943 40.8429 4.97477 40.8429 4.6671C40.8429 4.35943 40.7823 4.05477 40.6646 3.77052C40.5468 3.48627 40.3742 3.22799 40.1567 3.01043C39.9391 2.79288 39.6809 2.6203 39.3966 2.50256C39.1124 2.38482 38.8077 2.32422 38.5 2.32422C38.1924 2.32422 37.8877 2.38482 37.6034 2.50256C37.3192 2.6203 37.0609 2.79288 36.8434 3.01043L34.51 5.34377C34.2913 5.56068 34.1177 5.81875 33.9993 6.10309C33.8808 6.38743 33.8198 6.6924 33.8198 7.00043C33.8198 7.30846 33.8808 7.61344 33.9993 7.89778C34.1177 8.18212 34.2913 8.44019 34.51 8.6571C34.728 8.87336 34.9866 9.04445 35.2709 9.16057C35.5552 9.27668 35.8596 9.33554 36.1667 9.33377ZM41.8134 36.4471C41.7623 36.2984 41.6917 36.1572 41.6034 36.0271L41.3234 35.6771L40.9734 35.3971C40.8433 35.3088 40.702 35.2382 40.5534 35.1871C40.4144 35.1161 40.2646 35.0687 40.11 35.0471C39.7352 34.972 39.3476 34.9902 38.9814 35.1001C38.6152 35.2099 38.2817 35.4081 38.01 35.6771C37.9097 35.788 37.8162 35.9049 37.73 36.0271C37.6417 36.1572 37.5711 36.2984 37.52 36.4471C37.4528 36.5794 37.4056 36.7209 37.38 36.8671C37.3686 37.0224 37.3686 37.1784 37.38 37.3338C37.3826 37.9459 37.6256 38.5325 38.0567 38.9671C38.2725 39.1927 38.5354 39.368 38.8267 39.4804C39.0927 39.5942 39.3775 39.6575 39.6667 39.6671C40.2855 39.6671 40.879 39.4213 41.3166 38.9837C41.7542 38.5461 42 37.9526 42 37.3338C42.0115 37.1784 42.0115 37.0224 42 36.8671C41.9598 36.7183 41.8969 36.5766 41.8134 36.4471ZM46.1067 25.9238L42.9334 16.4504C42.4493 15.0813 41.5514 13.8966 40.3641 13.0605C39.1768 12.2243 37.7589 11.7782 36.3067 11.7838H19.6934C18.2412 11.7782 16.8232 12.2243 15.6359 13.0605C14.4486 13.8966 13.5507 15.0813 13.0667 16.4504L9.89335 25.9238C8.40078 26.3146 7.07916 27.1877 6.13396 28.4071C5.18875 29.6266 4.67293 31.1242 4.66669 32.6671V42.0004C4.67075 43.4446 5.1214 44.8522 5.95688 46.0302C6.79235 47.2083 7.97174 48.099 9.33335 48.5804V51.3338C9.33335 51.9526 9.57919 52.5461 10.0168 52.9837C10.4544 53.4213 11.0478 53.6671 11.6667 53.6671C12.2855 53.6671 12.879 53.4213 13.3166 52.9837C13.7542 52.5461 14 51.9526 14 51.3338V49.0004H42V51.3338C42 51.9526 42.2459 52.5461 42.6834 52.9837C43.121 53.4213 43.7145 53.6671 44.3334 53.6671C44.9522 53.6671 45.5457 53.4213 45.9833 52.9837C46.4209 52.5461 46.6667 51.9526 46.6667 51.3338V48.5804C48.0283 48.099 49.2077 47.2083 50.0432 46.0302C50.8786 44.8522 51.3293 43.4446 51.3334 42.0004V32.6671C51.3271 31.1242 50.8113 29.6266 49.8661 28.4071C48.9209 27.1877 47.5993 26.3146 46.1067 25.9238ZM17.4767 17.9204C17.6332 17.457 17.9314 17.0545 18.3292 16.7697C18.727 16.485 19.2042 16.3325 19.6934 16.3338H36.3067C36.8155 16.3072 37.319 16.4479 37.7404 16.7344C38.1617 17.0209 38.4777 17.4375 38.64 17.9204L41.09 25.6671H14.91L17.4767 17.9204ZM46.6667 42.0004C46.6667 42.6193 46.4209 43.2128 45.9833 43.6504C45.5457 44.0879 44.9522 44.3338 44.3334 44.3338H11.6667C11.0478 44.3338 10.4544 44.0879 10.0168 43.6504C9.57919 43.2128 9.33335 42.6193 9.33335 42.0004V32.6671C9.33335 32.0483 9.57919 31.4548 10.0168 31.0172C10.4544 30.5796 11.0478 30.3338 11.6667 30.3338H44.3334C44.9522 30.3338 45.5457 30.5796 45.9833 31.0172C46.4209 31.4548 46.6667 32.0483 46.6667 32.6671V42.0004ZM30.3334 35.0004H25.6667C25.0478 35.0004 24.4544 35.2463 24.0168 35.6838C23.5792 36.1214 23.3334 36.7149 23.3334 37.3338C23.3334 37.9526 23.5792 38.5461 24.0168 38.9837C24.4544 39.4213 25.0478 39.6671 25.6667 39.6671H30.3334C30.9522 39.6671 31.5457 39.4213 31.9833 38.9837C32.4209 38.5461 32.6667 37.9526 32.6667 37.3338C32.6667 36.7149 32.4209 36.1214 31.9833 35.6838C31.5457 35.2463 30.9522 35.0004 30.3334 35.0004ZM18.48 36.4471C18.4289 36.2984 18.3583 36.1572 18.27 36.0271L17.99 35.6771C17.6619 35.3533 17.2452 35.134 16.7926 35.0468C16.3399 34.9596 15.8716 35.0084 15.4467 35.1871C15.1603 35.2982 14.8986 35.4647 14.6767 35.6771C14.5763 35.788 14.4828 35.9049 14.3967 36.0271C14.3084 36.1572 14.2378 36.2984 14.1867 36.4471C14.1032 36.5766 14.0402 36.7183 14 36.8671C13.9886 37.0224 13.9886 37.1784 14 37.3338C14.002 37.7952 14.1407 38.2458 14.3987 38.6284C14.6566 39.011 15.0223 39.3086 15.4494 39.4834C15.8764 39.6582 16.3458 39.7025 16.798 39.6106C17.2502 39.5187 17.6651 39.2948 17.99 38.9671C18.4211 38.5325 18.6641 37.9459 18.6667 37.3338C18.6781 37.1784 18.6781 37.0224 18.6667 36.8671C18.6265 36.7183 18.5635 36.5766 18.48 36.4471Z" fill="#1C4274" stroke="white" stroke-width="0.5"/>
</svg>
